Coordinates
version=1
nRows=38
nColumns=12
inDegrees=yes

Units are S.I. units (second, meters, Newtons, ...)
Angles are in degrees

endheader
time	SC_y	SC_z	SC_x	AC_y	AC_z	AC_x	GH_y	GH_z	GH_yy	EL_x	PS_y
       0.0              -13.51          22.09          33.51          56.43          -14.4         -16.27          160.9           17.5          45.92          114.2          112.6
   0.04533              -13.52          22.09          33.51          56.43          -14.4         -16.27          160.8          17.51          45.93          114.2          112.6
   0.09066              -13.52          22.08           33.5          56.43          -14.4         -16.27          160.8          17.52          45.95          114.1          112.6
     0.136              -13.53          22.08           33.5          56.42         -14.39         -16.26          160.7          17.53          45.96          114.1          112.6
    0.1813              -13.54          22.08           33.5          56.42         -14.39         -16.26          160.7          17.54          45.98          114.1          112.6
    0.2267              -13.54          22.07          33.49          56.42         -14.39         -16.26          160.6          17.55           46.0          114.1          112.6
     0.272              -13.55          22.07          33.49          56.41         -14.39         -16.25          160.6          17.56          46.02          114.1          112.6
    0.3173              -13.56          22.06          33.48          56.41         -14.38         -16.25          160.5          17.57          46.04          114.1          112.6
    0.3627              -13.57          22.05          33.48           56.4         -14.38         -16.25          160.5          17.59          46.06          114.0          112.6
     0.408              -13.58          22.05          33.47           56.4         -14.38         -16.24          160.4           17.6          46.08          114.0          112.6
    0.4533              -13.59          22.04          33.47           56.4         -14.37         -16.24          160.3          17.61          46.11          114.0          112.6
    0.4986               -13.6          22.03          33.46          56.39         -14.37         -16.23          160.2          17.63          46.13          113.9          112.6
     0.544              -13.61          22.03          33.46          56.38         -14.36         -16.23          160.2          17.65          46.16          113.9          112.6
    0.5893              -13.63          22.02          33.45          56.38         -14.36         -16.22          160.1          17.66          46.19          113.9          112.6
    0.6346              -13.64          22.01          33.44          56.37         -14.35         -16.21          160.0          17.68          46.23          113.8          112.6
      0.68              -13.65           22.0          33.43          56.36         -14.35         -16.21          159.9          17.71          46.26          113.8          112.6
    0.7253              -13.67          21.99          33.42          56.36         -14.34          -16.2          159.7          17.73           46.3          113.8          112.6
    0.7706              -13.69          21.98          33.41          56.35         -14.33         -16.19          159.6          17.75          46.35          113.7          112.6
     0.816              -13.71          21.96           33.4          56.34         -14.32         -16.18          159.5          17.78           46.4          113.7          112.6
    0.8613              -13.73          21.95          33.39          56.33         -14.32         -16.17          159.3          17.81          46.45          113.6          112.6
    0.9066              -13.75          21.93          33.38          56.31         -14.31         -16.16          159.2          17.84          46.51          113.5          112.6
     0.952              -13.78          21.92          33.37           56.3          -14.3         -16.15          159.0          17.88          46.57          113.5          112.6
    0.9973              -13.81           21.9          33.35          56.29         -14.28         -16.14          158.8          17.92          46.64          113.4          112.5
     1.043              -13.84          21.88          33.33          56.27         -14.27         -16.12          158.6          17.97          46.71          113.3          112.5
     1.088              -13.88          21.85          33.31          56.26         -14.26          -16.1          158.3          18.02           46.8          113.2          112.5
     1.133              -13.92          21.83          33.29          56.24         -14.24         -16.09          158.0          18.07           46.9          113.1          112.5
     1.179              -13.96           21.8          33.27          56.21         -14.22         -16.06          157.7          18.13           47.0          113.0          112.5
     1.224              -14.01          21.77          33.24          56.19          -14.2         -16.04          157.4           18.2          47.12          112.9          112.5
     1.269              -14.07          21.73          33.21          56.16         -14.18         -16.02          157.0          18.28          47.26          112.7          112.5
     1.315              -14.13          21.69          33.18          56.13         -14.16         -15.99          156.5          18.37          47.41          112.5          112.5
      1.36               -14.2          21.64          33.14           56.1         -14.13         -15.95          156.0          18.47          47.59          112.3          112.4
     1.405              -14.29          21.58          33.09          56.05         -14.09         -15.91          155.4          18.59          47.79          112.1          112.4
     1.451              -14.38          21.52          33.04          56.01         -14.06         -15.87          154.8          18.73          48.03          111.9          112.4
     1.496               -14.5          21.45          32.98          55.95         -14.01         -15.82          154.0          18.88           48.3          111.6          112.4
     1.541              -14.63          21.36          32.91          55.89         -13.96         -15.75          153.1          19.07          48.62          111.2          112.3
     1.587              -14.78          21.26          32.83          55.81          -13.9         -15.68          152.0          19.29          48.99          110.8          112.3
     1.632              -14.97          21.14          32.73          55.72         -13.83          -15.6          150.7          19.54          49.44          110.3          112.2
     1.677              -15.19          20.99          32.61          55.61         -13.74         -15.49          149.2          19.85          49.97          109.7          112.2
